<svg width="383" height="236" viewBox="0 0 383 236" fill="none" xmlns="http://www.w3.org/2000/svg">
<path d="M382 185H1C0.734784 185 0.480444 184.895 0.292908 184.707C0.105371 184.52 0 184.265 0 184C0 183.735 0.105371 183.48 0.292908 183.293C0.480444 183.105 0.734784 183 1 183H382C382.265 183 382.52 183.105 382.707 183.293C382.895 183.48 383 183.735 383 184C383 184.265 382.895 184.52 382.707 184.707C382.52 184.895 382.265 185 382 185Z" fill="#3F3D56"/>
<path d="M199.059 54C213.971 54 226.059 41.9117 226.059 27C226.059 12.0883 213.971 0 199.059 0C184.147 0 172.059 12.0883 172.059 27C172.059 41.9117 184.147 54 199.059 54Z" fill="#2F2E41"/>
<path d="M173.405 200.326L172.69 188.088L219.556 179.503L220.612 197.567L173.405 200.326Z" fill="#FFB8B8"/>
<path d="M175.675 179.141L177.055 202.745L162.194 203.613L159.945 165.148C161.897 165.034 163.852 165.306 165.699 165.947C167.545 166.589 169.248 167.587 170.708 168.887C172.169 170.186 173.359 171.76 174.212 173.52C175.064 175.279 175.561 177.189 175.675 179.141Z" fill="#2F2E41"/>
<path d="M193.789 200.214L186.004 209.685L145.768 184.166L157.257 170.188L193.789 200.214Z" fill="#FFB8B8"/>
<path d="M177.737 214.226L192.751 195.96L204.251 205.413L179.785 235.179C178.275 233.938 177.024 232.411 176.104 230.687C175.184 228.962 174.612 227.073 174.422 225.127C174.232 223.181 174.427 221.217 174.996 219.347C175.564 217.476 176.496 215.736 177.737 214.226V214.226Z" fill="#2F2E41"/>
<path d="M171.387 156.17L166.067 181.249C165.944 181.826 165.951 182.424 166.087 182.998C166.223 183.573 166.484 184.11 166.852 184.572C167.219 185.033 167.685 185.408 168.215 185.668C168.744 185.929 169.325 186.069 169.915 186.078L222.213 186.922C222.803 186.931 223.387 186.81 223.924 186.568C224.462 186.325 224.939 185.967 225.321 185.518C225.704 185.069 225.982 184.542 226.137 183.973C226.292 183.404 226.319 182.808 226.217 182.227L221.642 156.305C221.479 155.379 220.994 154.54 220.274 153.936C219.554 153.331 218.643 153 217.703 153H175.3C174.383 153 173.494 153.315 172.782 153.892C172.069 154.469 171.577 155.273 171.387 156.17V156.17Z" fill="#2F2E41"/>
<path d="M180.059 165C180.059 165 129.059 133 119.059 150C114.059 158.5 116.559 166.75 120.309 172.875C123.789 178.452 128.785 182.923 134.712 185.766L176.059 206L191.059 190L181.059 181L180.059 165Z" fill="#2F2E41"/>
<path d="M206.059 160C206.059 160 272.059 141 259.059 177C246.059 213 197.059 199 197.059 199L192.059 184L209.059 172L206.059 160Z" fill="#2F2E41"/>
<path d="M199.398 57.7264C212.962 57.7264 223.959 46.73 223.959 33.1653C223.959 19.6006 212.962 8.60431 199.398 8.60431C185.833 8.60431 174.837 19.6006 174.837 33.1653C174.837 46.73 185.833 57.7264 199.398 57.7264Z" fill="#FFB8B8"/>
<path d="M200.685 163.969C190.479 163.814 180.325 162.477 170.427 159.982L170.135 159.902L156.429 96.8574C155.196 91.3175 156.035 85.5178 158.786 80.5537C161.537 75.5896 166.011 71.8048 171.362 69.914C187.892 63.9833 205.908 63.6235 222.662 68.8896H222.662C228.284 70.7012 233.015 74.5657 235.913 79.712C238.811 84.8583 239.663 90.9081 238.297 96.6543L222.989 159.85L222.773 159.952C216.411 162.966 208.456 163.969 200.685 163.969Z" fill="#CCCCCC"/>
<path d="M182.274 168.866C182.772 167.483 183.567 166.226 184.603 165.183C185.64 164.14 186.892 163.337 188.272 162.831C189.652 162.324 191.126 162.127 192.591 162.251C194.056 162.376 195.475 162.821 196.75 163.554L223.736 140.13L226.178 158.538L200.177 177.96C198.804 180.019 196.723 181.503 194.328 182.131C191.934 182.758 189.393 182.486 187.186 181.365C184.98 180.244 183.261 178.352 182.355 176.049C181.45 173.745 181.421 171.19 182.274 168.866V168.866Z" fill="#FFB8B8"/>
<path d="M208.012 173.976C207.573 173.975 207.136 173.911 206.716 173.785C206.033 173.586 205.408 173.227 204.892 172.737C204.377 172.247 203.986 171.641 203.753 170.969L200.496 161.74C200.191 160.887 200.152 159.962 200.385 159.087C200.617 158.211 201.11 157.427 201.798 156.838L238.567 134.764L224.073 70.1025L224.442 70.0137C224.592 69.9766 239.442 66.5967 245.527 82.8242C249.789 94.1895 265.559 118.901 264.446 135.601C264.235 138.941 262.904 142.112 260.668 144.603C258.432 147.094 255.422 148.759 252.124 149.328L210.736 173.041C209.957 173.645 208.999 173.974 208.012 173.976Z" fill="#CCCCCC"/>
<path d="M212.136 166.673C211.638 165.289 210.843 164.032 209.807 162.989C208.771 161.946 207.519 161.144 206.139 160.637C204.759 160.131 203.284 159.933 201.819 160.058C200.355 160.183 198.935 160.628 197.661 161.36L170.674 137.936L168.233 156.344L194.234 175.767C195.607 177.826 197.688 179.31 200.082 179.937C202.476 180.565 205.017 180.292 207.224 179.171C209.431 178.05 211.15 176.159 212.055 173.855C212.96 171.552 212.989 168.996 212.136 166.673V166.673Z" fill="#FFB8B8"/>
<path d="M189.106 173.976C188.12 173.974 187.162 173.645 186.382 173.041L141.994 151.328C138.696 150.759 135.686 149.094 133.45 146.603C131.214 144.112 129.883 140.941 129.672 137.601C128.559 120.901 147.329 94.1895 151.591 82.8242C157.676 66.5967 172.526 69.9756 172.677 70.0137L173.045 70.1025L155.551 136.764L195.32 156.838C196.008 157.427 196.501 158.211 196.733 159.087C196.966 159.962 196.927 160.887 196.622 161.74L193.365 170.969C193.132 171.641 192.741 172.247 192.226 172.737C191.71 173.227 191.085 173.586 190.402 173.785C189.982 173.911 189.545 173.975 189.106 173.976V173.976Z" fill="#CCCCCC"/>
<path d="M242.059 184H153.059C151.203 183.998 149.424 183.26 148.112 181.947C146.799 180.635 146.061 178.856 146.059 177V128C146.061 126.144 146.799 124.365 148.112 123.053C149.424 121.74 151.203 121.002 153.059 121H242.059C243.915 121.002 245.694 121.74 247.006 123.053C248.319 124.365 249.057 126.144 249.059 128V177C249.057 178.856 248.319 180.635 247.006 181.947C245.694 183.26 243.915 183.998 242.059 184V184Z" fill="#0F6BAD"/>
<path d="M197.559 158.5C200.873 158.5 203.559 155.814 203.559 152.5C203.559 149.186 200.873 146.5 197.559 146.5C194.245 146.5 191.559 149.186 191.559 152.5C191.559 155.814 194.245 158.5 197.559 158.5Z" fill="white"/>
<path d="M174.591 32.1657C173.135 28.4734 175.523 24.0733 179.066 22.2847C182.609 20.4961 186.885 20.8363 190.675 22.0151C193.859 23.0057 196.844 24.5409 199.951 25.7535C203.015 27.111 206.361 27.7069 209.704 27.4904C213.019 27.1161 216.317 25.2576 217.673 22.2104C219.079 19.0518 218.123 15.1973 215.958 12.5017C213.655 9.89562 210.674 7.97963 207.346 6.96683C200.039 4.3924 191.598 4.31714 184.814 8.05933C178.03 11.8015 173.42 19.7696 174.822 27.3894" fill="#2F2E41"/>
<path d="M32.6625 173.318C33.8979 160.013 37.3102 147.001 42.763 134.801C44.2828 131.406 45.9555 128.086 47.7811 124.84C47.8727 124.671 47.8948 124.472 47.8427 124.286C47.7906 124.101 47.6684 123.943 47.5019 123.845C47.3354 123.748 47.1376 123.719 46.9502 123.765C46.7628 123.81 46.6006 123.927 46.4976 124.09C39.8583 135.911 35.2071 148.743 32.7298 162.073C32.0407 165.795 31.5228 169.544 31.176 173.318C31.0879 174.271 32.5749 174.265 32.6625 173.318V173.318Z" fill="#E6E6E6"/>
<path d="M51.3814 127.224C56.5808 127.224 60.7958 123.009 60.7958 117.81C60.7958 112.611 56.5808 108.396 51.3814 108.396C46.182 108.396 41.967 112.611 41.967 117.81C41.967 123.009 46.182 127.224 51.3814 127.224Z" fill="#0F6BAD"/>
<path d="M33.6255 173.568C34.427 164.937 36.6407 156.495 40.1782 148.581C41.1641 146.378 42.2493 144.224 43.4337 142.119C43.493 142.008 43.5073 141.88 43.4735 141.759C43.4397 141.639 43.3604 141.536 43.2524 141.473C43.1444 141.41 43.0161 141.391 42.8946 141.421C42.7731 141.45 42.6678 141.526 42.601 141.632C38.2938 149.301 35.2763 157.625 33.6692 166.273C33.2221 168.688 32.8861 171.12 32.6612 173.568C32.604 174.186 33.5687 174.182 33.6255 173.568H33.6255Z" fill="#E6E6E6"/>
<path d="M45.7693 143.665C49.1425 143.665 51.8769 140.931 51.8769 137.558C51.8769 134.185 49.1425 131.45 45.7693 131.45C42.3962 131.45 39.6618 134.185 39.6618 137.558C39.6618 140.931 42.3962 143.665 45.7693 143.665Z" fill="#0F6BAD"/>
<path d="M32.4084 172.992C27.7312 165.693 24.2845 157.675 22.2059 149.259C21.6287 146.916 21.1595 144.55 20.7983 142.162C20.7775 142.038 20.7095 141.928 20.6087 141.854C20.508 141.78 20.3823 141.747 20.2583 141.764C20.1343 141.781 20.0216 141.845 19.944 141.943C19.8664 142.041 19.83 142.166 19.8424 142.29C21.163 150.986 23.9039 159.406 27.9555 167.213C29.0882 169.392 30.3191 171.516 31.648 173.585C31.9828 174.107 32.7411 173.511 32.4084 172.992V172.992Z" fill="#E6E6E6"/>
<path d="M19.8347 143.236C23.2078 143.236 25.9423 140.502 25.9423 137.129C25.9423 133.756 23.2078 131.021 19.8347 131.021C16.4616 131.021 13.7271 133.756 13.7271 137.129C13.7271 140.502 16.4616 143.236 19.8347 143.236Z" fill="#0F6BAD"/>
<path d="M13.6586 178.396V166.396C13.6599 165.203 14.1345 164.059 14.9781 163.215C15.8217 162.372 16.9655 161.897 18.1586 161.896H46.1586C47.3516 161.897 48.4954 162.372 49.3391 163.215C50.1827 164.059 50.6572 165.203 50.6586 166.396V178.396C50.6572 179.589 50.1827 180.732 49.3391 181.576C48.4954 182.42 47.3516 182.894 46.1586 182.896H18.1586C16.9655 182.894 15.8217 182.42 14.9781 181.576C14.1345 180.732 13.6599 179.589 13.6586 178.396V178.396Z" fill="#F2F2F2"/>
<path d="M314.409 192.401C314.409 198.978 309.077 201.967 302.5 201.967C295.923 201.967 290.591 198.978 290.591 192.401C290.591 185.823 293.238 178.149 302.5 180.796C311.762 176.826 314.409 185.823 314.409 192.401Z" fill="#FF6584"/>
<path d="M301.92 183.877C301.457 183.878 301.009 183.71 300.661 183.404C300.313 183.099 300.088 182.677 300.029 182.218C299.635 178.936 297.461 172.51 296.545 169.899L296.545 169.898C296.452 169.639 296.424 169.361 296.462 169.088C296.501 168.815 296.604 168.556 296.765 168.332C296.919 168.132 297.113 167.967 297.335 167.847C297.557 167.727 297.802 167.656 298.054 167.638C298.305 167.62 298.558 167.655 298.795 167.741C299.032 167.828 299.248 167.964 299.428 168.14C299.59 168.309 299.715 168.509 299.795 168.729C299.876 168.949 299.91 169.182 299.897 169.416C299.717 172.767 302.16 178.181 303.632 181.11C303.771 181.386 303.84 181.692 303.835 182.001C303.83 182.31 303.749 182.614 303.601 182.885C303.452 183.156 303.24 183.387 302.982 183.558C302.725 183.729 302.429 183.835 302.122 183.866C302.055 183.874 301.987 183.877 301.92 183.877V183.877Z" fill="#3F3D56"/>
<path d="M310.732 176.485C314.866 173.102 311.623 166.178 306.449 167.507C305.752 167.673 305.111 168.016 304.585 168.501C301.411 171.499 300.919 179.17 300.919 179.17C300.919 179.17 306.524 179.93 310.732 176.485Z" fill="#3F3D56"/>
</svg>
